<svg xmlns="http://www.w3.org/2000/svg" width="67" height="67"><path fill="none" stroke="#F99406" stroke-miterlimit="10" d="M66.313 22.516C66.27 10.314 56.344.457 44.141.5c-12.072.021-21.855 9.739-22.008 21.771C10.305 22.692.854 32.418.875 44.344v.078c.043 12.202 9.97 22.059 22.172 22.016 12.068-.043 21.835-9.754 22.007-21.771 11.849-.442 21.3-10.203 21.259-22.151z"/><text transform="translate(37.8 31.334)" fill="#F99406" font-family="'Roboto-Light'" font-size="23">$</text><text transform="translate(17 53.093)" fill="#F99406" font-family="'Roboto-Light'" font-size="23">$</text><path fill="none" stroke="#F99406" stroke-miterlimit="10" d="M66.313 22.516C66.27 10.314 56.344.457 44.141.5c-12.072.021-21.855 9.739-22.008 21.771C10.305 22.692.854 32.418.875 44.344v.078c.043 12.202 9.97 22.059 22.172 22.016 12.068-.043 21.835-9.754 22.007-21.771 11.849-.442 21.3-10.203 21.259-22.151zM44.141 44.609c-12.159 0-22.016-9.856-22.016-22.015S31.982.578 44.141.578c12.16 0 22.017 9.857 22.017 22.016-.001 12.159-9.857 22.015-22.017 22.015z"/></svg>