<?xml version="1.0" encoding="utf-8"?>
<!-- Generator: Adobe Illustrator 16.0.0, SVG Export Plug-In . SVG Version: 6.00 Build 0)  -->
<!DOCTYPE svg PUBLIC "-//W3C//DTD SVG 1.1//EN" "http://www.w3.org/Graphics/SVG/1.1/DTD/svg11.dtd">
<svg version="1.1" xmlns="http://www.w3.org/2000/svg" xmlns:xlink="http://www.w3.org/1999/xlink" x="0px" y="0px" width="67px"
	 height="67px" viewBox="0 0 67 67" enable-background="new 0 0 67 67" xml:space="preserve">
<g id="Слой_2">
	<g enable-background="new    ">
		<path fill="#F99406" d="M48.918,26.303c0-0.832-0.27-1.511-0.809-2.039c-0.539-0.527-1.489-1.027-2.854-1.499
			c-1.691-0.531-2.879-1.162-3.563-1.893c-0.682-0.729-1.021-1.675-1.021-2.835c0-1.221,0.374-2.211,1.123-2.971
			c0.748-0.76,1.767-1.192,3.056-1.297V11.5h1.146v2.27c1.317,0.119,2.338,0.613,3.062,1.482c0.724,0.868,1.084,2.047,1.084,3.537
			h-1.336c0-1.176-0.307-2.109-0.916-2.802c-0.608-0.692-1.442-1.039-2.498-1.039c-1.063,0-1.894,0.279-2.488,0.837
			c-0.594,0.558-0.894,1.301-0.894,2.229c0,0.898,0.273,1.601,0.82,2.106c0.546,0.505,1.478,0.98,2.79,1.426
			c1.313,0.445,2.27,0.872,2.863,1.28c0.596,0.408,1.041,0.892,1.336,1.449c0.297,0.558,0.443,1.226,0.443,2.004
			c0,1.229-0.384,2.219-1.149,2.971c-0.769,0.753-1.821,1.182-3.162,1.286v2.134h-1.136v-2.123c-1.504-0.097-2.668-0.57-3.491-1.42
			s-1.234-2.013-1.234-3.487h1.349c0,1.168,0.34,2.083,1.021,2.746c0.683,0.662,1.633,0.993,2.854,0.993
			c1.063,0,1.93-0.284,2.6-0.854C48.584,27.958,48.918,27.216,48.918,26.303z"/>
	</g>
	<g enable-background="new    ">
		<path fill="#F99406" d="M26.119,49.063c0-0.832-0.27-1.512-0.809-2.039c-0.539-0.525-1.49-1.025-2.853-1.5
			c-1.692-0.529-2.879-1.162-3.56-1.893c-0.681-0.729-1.022-1.674-1.022-2.834c0-1.221,0.375-2.211,1.123-2.971
			s1.767-1.193,3.055-1.297v-2.271h1.146v2.271c1.318,0.119,2.338,0.613,3.06,1.482c0.723,0.865,1.084,2.047,1.084,3.535h-1.336
			c0-1.176-0.305-2.107-0.916-2.803c-0.61-0.689-1.443-1.039-2.499-1.039c-1.063,0-1.892,0.277-2.488,0.838
			c-0.595,0.559-0.893,1.303-0.893,2.229c0,0.897,0.273,1.601,0.82,2.104c0.547,0.505,1.477,0.979,2.791,1.427
			c1.314,0.444,2.269,0.873,2.864,1.28c0.595,0.408,1.041,0.892,1.336,1.448c0.296,0.558,0.444,1.226,0.444,2.005
			c0,1.229-0.384,2.219-1.151,2.971c-0.768,0.753-1.821,1.183-3.162,1.285v2.136H22.02v-2.123c-1.505-0.099-2.669-0.57-3.493-1.42
			c-0.824-0.851-1.235-2.015-1.235-3.488h1.348c0,1.168,0.341,2.084,1.022,2.746c0.681,0.662,1.632,0.994,2.853,0.994
			c1.063,0,1.93-0.285,2.6-0.854C25.784,50.717,26.119,49.975,26.119,49.063z"/>
	</g>
</g>
<g id="Слой_3">
	<g>
		<path fill="#F99406" d="M45,2.5c11.028,0,20,8.972,20,20s-8.972,20-20,20c-11.028,0-20-8.972-20-20S33.972,2.5,45,2.5 M45,0.5
			c-12.15,0-22,9.85-22,22s9.85,22,22,22s22-9.85,22-22S57.15,0.5,45,0.5L45,0.5z"/>
	</g>
</g>
<g id="Слой_4">
	<g>
		<path fill="#F99406" d="M45,2.5c11.028,0,20,8.972,20,20s-8.972,20-20,20c-0.311,0-0.619-0.01-0.927-0.023l-2.146-0.094
			l0.061,2.147l0.006,0.175C41.996,44.803,42,44.901,42,45c0,11.028-8.972,20-20,20S2,56.028,2,45c0-11.028,8.972-20,20-20
			c0.31,0,0.617,0.01,0.923,0.023l2.137,0.096l-0.048-2.139l-0.006-0.214C25.003,22.678,25,22.589,25,22.5
			C25,11.472,33.972,2.5,45,2.5 M45,0.5c-12.15,0-22,9.85-22,22c0,0.176,0.009,0.351,0.013,0.525C22.677,23.01,22.34,23,22,23
			C9.85,23,0,32.85,0,45s9.85,22,22,22s22-9.85,22-22c0-0.176-0.009-0.351-0.014-0.525C44.322,44.489,44.66,44.5,45,44.5
			c12.15,0,22-9.85,22-22S57.15,0.5,45,0.5L45,0.5z"/>
	</g>
</g>
</svg>
